<svg width="93" height="93" viewBox="0 0 93 93" fill="none" xmlns="http://www.w3.org/2000/svg">
<path d="M45.867 86.7572L45.5083 91.7375L44.9052 91.6941L45.065 89.4763L42.4095 89.285L42.2497 91.5028L41.6466 91.4594L42.0054 86.4791L42.6084 86.5225L42.448 88.75L45.1035 88.9413L45.2639 86.7138L45.867 86.7572Z" fill="#231F20"/>
<path d="M32.1619 89.3018L32.2778 84.8463L32.2231 84.8255L29.3379 88.2226L28.7458 87.9963L32.2409 83.9866L32.8239 84.2094L32.754 89.5281L32.1619 89.3018Z" fill="#231F20"/>
<path d="M24.7681 85.9635L27.1765 81.5895L27.7061 81.8811L25.2978 86.2551L24.7681 85.9635Z" fill="#231F20"/>
<path d="M23.0033 78.8912L24.2326 79.8202L21.2223 83.8039L19.9385 82.8338C19.552 82.5417 19.2816 82.2121 19.1272 81.8448C18.9719 81.4789 18.9331 81.0921 19.011 80.6844C19.0879 80.278 19.2821 79.8686 19.5938 79.4562C19.9073 79.0413 20.2512 78.7399 20.6254 78.552C20.9986 78.3655 21.3873 78.2986 21.7916 78.3514C22.1948 78.4056 22.5987 78.5855 23.0033 78.8912ZM23.4268 79.8836L22.711 79.3427C22.3817 79.0938 22.0607 78.951 21.7481 78.9145C21.4355 78.8779 21.1373 78.9368 20.8536 79.0912C20.5699 79.2455 20.3056 79.4848 20.0606 79.809C19.8176 80.1306 19.6609 80.4471 19.5905 80.7586C19.5191 81.0714 19.5408 81.369 19.6555 81.6512C19.7693 81.9348 19.9817 82.1942 20.293 82.4293L21.0632 83.0114L23.4268 79.8836Z" fill="#231F20"/>
<path d="M18.4758 75.0176L14.8298 78.4292L12.7709 76.2288L13.1625 75.8623L14.8084 77.6212L16.0403 76.4684L14.5011 74.8235L14.8927 74.457L16.4319 76.102L17.671 74.9425L15.9985 73.1552L16.3901 72.7887L18.4758 75.0176Z" fill="#231F20"/>
<path d="M10.016 68.1367C10.4579 67.8502 10.8914 67.6824 11.3168 67.6333C11.7421 67.5842 12.1322 67.6421 12.4872 67.8071C12.8421 67.9722 13.1354 68.2334 13.3671 68.5907C13.5988 68.948 13.7175 69.3224 13.7233 69.7138C13.7292 70.1052 13.6229 70.485 13.4045 70.8532C13.1861 71.2215 12.8559 71.5489 12.414 71.8354C11.9722 72.1218 11.5386 72.2897 11.1133 72.3388C10.6879 72.3879 10.2978 72.3299 9.94285 72.1649C9.58789 71.9999 9.29458 71.7387 9.06291 71.3814C8.83123 71.024 8.71249 70.6497 8.70667 70.2583C8.70086 69.8669 8.80715 69.487 9.02555 69.1188C9.24396 68.7505 9.5741 68.4232 10.016 68.1367ZM10.3343 68.6277C9.97153 68.8629 9.7047 69.1221 9.53382 69.4053C9.36205 69.6871 9.27883 69.9725 9.28415 70.2616C9.28859 70.5493 9.37305 70.82 9.53751 71.0736C9.70198 71.3273 9.91508 71.5156 10.1768 71.6384C10.4376 71.7598 10.7322 71.8003 11.0605 71.7599C11.3879 71.7181 11.7329 71.5796 12.0957 71.3444C12.4585 71.1092 12.7258 70.8507 12.8975 70.5688C13.0684 70.2856 13.1516 70.0002 13.1472 69.7125C13.1419 69.4234 13.057 69.1521 12.8925 68.8984C12.728 68.6447 12.5154 68.4572 12.2545 68.3357C11.9928 68.2129 11.6983 68.1724 11.3709 68.2142C11.0426 68.2546 10.6971 68.3924 10.3343 68.6277Z" fill="#231F20"/>
<path d="M8.48182 58.4349L3.97881 60.9881L3.82747 60.3927L7.51183 58.3796L7.49981 58.3323L3.29656 58.3038L3.1284 57.6422L6.80795 55.6102L6.79594 55.5629L2.59748 55.5534L2.44614 54.9579L7.62179 55.0512L7.77554 55.6561L4.19066 57.7043L4.20027 57.7421L8.32807 57.83L8.48182 58.4349Z" fill="#231F20"/>
<path d="M6.8841 50.0383L6.91214 50.6715L1.84274 49.0608L1.81513 48.4372L6.72234 46.3847L6.75038 47.018L2.61724 48.6946L2.61897 48.7335L6.8841 50.0383ZM4.9252 49.8907L4.81217 47.3381L5.34803 47.3144L5.46105 49.867L4.9252 49.8907Z" fill="#231F20"/>
<path d="M2.45484 42.9109L1.92243 42.8458L2.37699 39.1286L2.9094 39.1937L2.71881 40.7522L7.14267 41.2932L7.06928 41.8934L2.64542 41.3524L2.45484 42.9109Z" fill="#231F20"/>
<path d="M5.80592 32.1871L5.62801 32.7649C5.45127 32.7479 5.28683 32.7628 5.1347 32.8095C4.98304 32.8546 4.84585 32.9246 4.7231 33.0195C4.59928 33.1123 4.49315 33.2251 4.40469 33.3577C4.31624 33.4903 4.24762 33.6359 4.19884 33.7943C4.10988 34.0832 4.1023 34.3675 4.1761 34.647C4.25038 34.925 4.40838 35.1768 4.65009 35.4026C4.89228 35.6269 5.21998 35.8026 5.63319 35.9298C6.0464 36.057 6.41619 36.096 6.74256 36.0469C7.0694 35.9961 7.34171 35.8767 7.55947 35.6887C7.77771 35.4991 7.93131 35.2598 8.02027 34.9709C8.06905 34.8124 8.09418 34.6535 8.09564 34.4941C8.0971 34.3346 8.07352 34.182 8.02491 34.0361C7.97523 33.8881 7.90038 33.7528 7.80038 33.6302C7.69931 33.5055 7.5717 33.4008 7.41756 33.3159L7.59547 32.738C7.82597 32.8566 8.01983 33.003 8.17707 33.1773C8.3343 33.3516 8.45419 33.5449 8.53672 33.7574C8.61771 33.9694 8.66039 34.1926 8.66477 34.4269C8.66963 34.6597 8.63499 34.8965 8.56086 35.1373C8.43555 35.5443 8.2247 35.8756 7.92829 36.1313C7.63188 36.387 7.2724 36.5493 6.84983 36.6182C6.42726 36.687 5.96433 36.644 5.46101 36.489C4.9577 36.3341 4.55072 36.1093 4.24007 35.8147C3.92942 35.52 3.72346 35.1837 3.62219 34.8055C3.52092 34.4274 3.53294 34.0349 3.65824 33.6279C3.73238 33.3871 3.83692 33.1718 3.97187 32.9821C4.10729 32.7908 4.26889 32.6305 4.45664 32.5012C4.64285 32.3715 4.84996 32.2788 5.07798 32.2231C5.30444 32.167 5.54709 32.155 5.80592 32.1871Z" fill="#231F20"/>
<path d="M10.5949 29.5509L6.19452 27.191L6.48028 26.6582L8.43981 27.709L9.69809 25.3628L7.73857 24.3119L8.02433 23.779L12.4247 26.1389L12.1389 26.6718L10.1708 25.6163L8.9125 27.9625L10.8806 29.018L10.5949 29.5509Z" fill="#231F20"/>
<path d="M13.8663 16.0009L17.8866 17.9249L17.928 17.8835L16.0041 13.8631L16.4523 13.4149L18.6866 18.2421L18.2452 18.6834L13.4181 16.4491L13.8663 16.0009Z" fill="#231F20"/>
<path d="M19.9312 10.6113L22.9415 14.595L22.4591 14.9595L19.4488 10.9758L19.9312 10.6113Z" fill="#231F20"/>
<path d="M27.1074 11.8871L25.7577 12.6303L23.3493 8.25633L24.7588 7.48018C25.1831 7.24656 25.5944 7.13421 25.9927 7.14313C26.3902 7.15063 26.7592 7.27312 27.0996 7.51058C27.4392 7.74662 27.7337 8.09103 27.983 8.5438C28.2339 8.99943 28.3687 9.43637 28.3875 9.85465C28.4055 10.2715 28.3079 10.6537 28.0947 11.0011C27.8808 11.3472 27.5517 11.6425 27.1074 11.8871ZM26.0286 11.8688L26.8145 11.436C27.1762 11.2369 27.4375 11.0021 27.5984 10.7317C27.7594 10.4612 27.8273 10.165 27.8021 9.84297C27.777 9.52097 27.6664 9.18199 27.4704 8.82604C27.276 8.47293 27.051 8.2007 26.7953 8.00934C26.5389 7.81655 26.2584 7.71493 25.9539 7.70446C25.6486 7.69257 25.3251 7.7807 24.9834 7.96886L24.1376 8.43455L26.0286 11.8688Z" fill="#231F20"/>
<path d="M32.4913 9.33404L30.8645 4.61328L33.7136 3.63149L33.8883 4.1386L31.6109 4.9234L32.1606 6.5185L34.2905 5.78454L34.4652 6.29165L32.3354 7.02561L32.8882 8.62993L35.2025 7.83242L35.3772 8.33954L32.4913 9.33404Z" fill="#231F20"/>
<path d="M42.2262 4.41855C42.3074 4.93888 42.2837 5.40321 42.1549 5.81154C42.0262 6.21987 41.8141 6.55239 41.5186 6.8091C41.223 7.0658 40.8649 7.227 40.4441 7.29269C40.0234 7.35838 39.6332 7.31401 39.2735 7.1596C38.9138 7.00518 38.6104 6.75314 38.3633 6.40348C38.1163 6.05381 37.9521 5.61881 37.8709 5.09849C37.7896 4.57817 37.8134 4.11384 37.9421 3.70551C38.0708 3.29717 38.283 2.96465 38.5785 2.70795C38.874 2.45124 39.2321 2.29004 39.6529 2.22436C40.0736 2.15867 40.4639 2.20303 40.8236 2.35745C41.1833 2.51186 41.4867 2.7639 41.7337 3.11357C41.9808 3.46324 42.1449 3.89823 42.2262 4.41855ZM41.648 4.50881C41.5813 4.08163 41.4536 3.73226 41.2648 3.46068C41.0776 3.18886 40.8509 2.9964 40.5849 2.8833C40.3204 2.76995 40.0388 2.73659 39.7401 2.78322C39.4414 2.82986 39.1826 2.94758 38.9637 3.1364C38.7464 3.32496 38.5892 3.57734 38.4921 3.89354C38.3967 4.20949 38.3823 4.58106 38.449 5.00823C38.5157 5.43541 38.6426 5.78491 38.8298 6.05674C39.0187 6.32831 39.2453 6.52077 39.5097 6.63412C39.7758 6.74722 40.0582 6.78046 40.3569 6.73382C40.6556 6.68719 40.9136 6.56959 41.1309 6.38103C41.3499 6.19221 41.5071 5.93983 41.6025 5.62388C41.6995 5.30768 41.7147 4.93599 41.648 4.50881Z" fill="#231F20"/>
<path d="M51.7079 6.97853L51.2145 1.8256L51.8199 1.93043L52.1543 6.11556L52.2023 6.12388L53.9436 2.29816L54.6162 2.41464L54.9698 6.6031L55.0178 6.61142L56.7399 2.78237L57.3453 2.8872L55.148 7.57422L54.533 7.46773L54.1261 3.3591L54.0876 3.35244L52.3229 7.08502L51.7079 6.97853Z" fill="#231F20"/>
<path d="M60.0256 8.94628L59.436 8.71345L62.9753 4.7427L63.5558 4.97195L63.4271 10.2895L62.8375 10.0567L62.9936 5.59921L62.9573 5.58488L60.0256 8.94628ZM60.9597 7.21812L63.3362 8.15661L63.1392 8.6555L60.7627 7.717L60.9597 7.21812Z" fill="#231F20"/>
<path d="M68.3415 7.81043L68.6182 7.35093L71.8263 9.28285L71.5496 9.74234L70.2045 8.93235L67.9053 12.7503L67.3873 12.4384L69.6865 8.62042L68.3415 7.81043Z" fill="#231F20"/>
<path d="M76.7639 15.2464L76.309 14.8481C76.3966 14.6937 76.4502 14.5375 76.4696 14.3796C76.4903 14.2227 76.4824 14.0689 76.4459 13.9181C76.4116 13.7672 76.352 13.6243 76.267 13.4894C76.1821 13.3545 76.0772 13.2325 75.9524 13.1233C75.725 12.9242 75.4686 12.8013 75.1833 12.7546C74.8992 12.709 74.6047 12.7504 74.3 12.8789C73.9964 13.0085 73.7023 13.236 73.4175 13.5613C73.1328 13.8867 72.9462 14.2083 72.8579 14.5264C72.7709 14.8454 72.7687 15.1428 72.8516 15.4183C72.9356 15.6949 73.0914 15.9328 73.3189 16.1319C73.4436 16.2411 73.5784 16.3289 73.7234 16.3953C73.8683 16.4617 74.0173 16.5025 74.1704 16.5176C74.3257 16.5327 74.4798 16.5195 74.6325 16.4783C74.7876 16.4369 74.9353 16.3631 75.0757 16.257L75.5307 16.6553C75.3283 16.8173 75.1155 16.9346 74.8923 17.007C74.669 17.0794 74.4436 17.11 74.2159 17.0986C73.9893 17.086 73.7681 17.0339 73.5524 16.9423C73.3379 16.8517 73.1359 16.7235 72.9463 16.5575C72.6259 16.2771 72.4094 15.9493 72.297 15.5744C72.1845 15.1995 72.183 14.805 72.2926 14.3911C72.4022 13.9773 72.6304 13.5722 72.9772 13.1759C73.3241 12.7797 73.6954 12.4999 74.0912 12.3365C74.4869 12.1731 74.878 12.1223 75.2646 12.1842C75.6511 12.246 76.0046 12.4172 76.325 12.6977C76.5146 12.8636 76.6684 13.0469 76.7866 13.2475C76.906 13.4493 76.9863 13.6622 77.0277 13.8864C77.0702 14.1093 77.0703 14.3362 77.0281 14.5671C76.9869 14.7967 76.8989 15.0232 76.7639 15.2464Z" fill="#231F20"/>
<path d="M77.215 20.6938L81.1652 17.6396L81.535 18.1179L79.776 19.478L81.4045 21.5842L83.1635 20.2242L83.5334 20.7025L79.5833 23.7567L79.2134 23.2784L80.9802 21.9123L79.3516 19.8061L77.5849 21.1722L77.215 20.6938Z" fill="#231F20"/>
<path d="M88.2508 29.2093L84.8537 32.0945L84.8746 32.1491L89.3301 32.0333L89.5564 32.6254L84.2377 32.6953L84.0149 32.1123L88.0245 28.6171L88.2508 29.2093Z" fill="#231F20"/>
<path d="M90.6971 36.9457L85.8317 38.0683L85.6958 37.4792L90.5612 36.3565L90.6971 36.9457Z" fill="#231F20"/>
<path d="M86.6027 42.9771L86.475 41.4416L91.4511 41.0278L91.5844 42.6314C91.6245 43.1141 91.5593 43.5354 91.3886 43.8954C91.2195 44.2552 90.9571 44.5421 90.6014 44.756C90.2473 44.9697 89.8127 45.098 89.2977 45.1408C88.7793 45.1839 88.3254 45.1287 87.9359 44.9752C87.5479 44.8215 87.2389 44.5764 87.0087 44.24C86.7801 43.9035 86.6448 43.4825 86.6027 42.9771ZM87.0597 41.9997L87.134 42.8938C87.1682 43.3052 87.276 43.6396 87.4572 43.8969C87.6384 44.1542 87.8812 44.3371 88.1854 44.4455C88.4896 44.554 88.8442 44.5914 89.2492 44.5577C89.6509 44.5243 89.9912 44.4299 90.2703 44.2746C90.5509 44.1192 90.7582 43.9046 90.892 43.6309C91.0274 43.357 91.079 43.0257 91.0466 42.637L90.9666 41.6748L87.0597 41.9997Z" fill="#231F20"/>
<path d="M86.7376 48.9333L91.7113 49.3746L91.4449 52.3763L90.9107 52.3289L91.1236 49.9295L89.443 49.7804L89.2439 52.0244L88.7096 51.977L88.9087 49.733L87.2185 49.583L87.0021 52.0213L86.4678 51.9739L86.7376 48.9333Z" fill="#231F20"/>
<path d="M87.2518 59.8273C86.7436 59.6891 86.3294 59.478 86.0091 59.1938C85.6889 58.9096 85.4719 58.5803 85.3581 58.2057C85.2443 57.8312 85.2433 57.4385 85.3551 57.0275C85.4668 56.6166 85.6665 56.2784 85.9543 56.0131C86.2421 55.7477 86.596 55.5736 87.016 55.4907C87.4361 55.4079 87.9002 55.4355 88.4084 55.5737C88.9165 55.7119 89.3307 55.923 89.651 56.2072C89.9713 56.4913 90.1883 56.8207 90.302 57.1952C90.4158 57.5698 90.4168 57.9625 90.3051 58.3735C90.1933 58.7844 89.9936 59.1225 89.7058 59.3879C89.4181 59.6533 89.0642 59.8274 88.6441 59.9103C88.2241 59.9931 87.7599 59.9655 87.2518 59.8273ZM87.4053 59.2627C87.8225 59.3761 88.1936 59.402 88.5186 59.3405C88.8431 59.2805 89.1113 59.1522 89.3232 58.9554C89.5346 58.7602 89.6799 58.5168 89.7592 58.225C89.8386 57.9333 89.8367 57.649 89.7537 57.3721C89.6702 57.0967 89.5039 56.8502 89.2549 56.6326C89.0054 56.4165 88.672 56.2518 88.2548 56.1383C87.8376 56.0249 87.4667 55.9982 87.1422 56.0581C86.8172 56.1197 86.549 56.248 86.3376 56.4432C86.1258 56.64 85.9802 56.8842 85.9009 57.1759C85.8216 57.4677 85.8236 57.7512 85.9071 58.0266C85.9901 58.3035 86.1564 58.55 86.4059 58.766C86.655 58.9837 86.9881 59.1492 87.4053 59.2627Z" fill="#231F20"/>
<path d="M81.0463 67.4396L85.952 69.092L85.6092 69.6019L81.652 68.1992L81.6248 68.2397L84.4068 71.3906L84.026 71.9572L80.0579 70.5707L80.0307 70.6111L82.8237 73.7459L82.4809 74.2558L79.0986 70.3371L79.4468 69.8191L83.3638 71.1242L83.3856 71.0919L80.6981 67.9576L81.0463 67.4396Z" fill="#231F20"/>
<path d="M75.8548 74.2308L76.308 73.7875L78.4887 78.6391L78.0425 79.0755L73.2404 76.788L73.6935 76.3447L77.6993 78.3062L77.7272 78.279L75.8548 74.2308ZM77.0513 75.7888L75.2247 77.5754L74.8497 77.192L76.6763 75.4054L77.0513 75.7888Z" fill="#231F20"/>
<path d="M73.4982 82.2846L73.8048 82.7247L70.7319 84.8651L70.4253 84.425L71.7137 83.5276L69.1664 79.8705L69.6625 79.5249L72.2099 83.182L73.4982 82.2846Z" fill="#231F20"/>
<path d="M63.2724 86.9389L63.8216 86.6861C63.9268 86.8291 64.0476 86.9417 64.1838 87.0239C64.3186 87.1068 64.4623 87.1624 64.6148 87.1905C64.7666 87.2209 64.9213 87.2248 65.0792 87.2022C65.237 87.1797 65.3912 87.1338 65.5418 87.0644C65.8164 86.938 66.0333 86.7541 66.1923 86.5127C66.3499 86.2719 66.4322 85.9862 66.4392 85.6556C66.4448 85.3256 66.3571 84.9642 66.1764 84.5714C65.9956 84.1787 65.778 83.8771 65.5237 83.6668C65.2679 83.4571 64.9973 83.3338 64.712 83.297C64.4252 83.2608 64.1444 83.3059 63.8698 83.4323C63.7192 83.5017 63.584 83.5889 63.4643 83.6942C63.3445 83.7994 63.2465 83.9188 63.1702 84.0523C63.0931 84.188 63.0422 84.334 63.0175 84.4903C62.992 84.6488 62.9991 84.8137 63.0386 84.9852L62.4894 85.238C62.424 84.9872 62.4038 84.7451 62.4288 84.5117C62.4538 84.2783 62.5179 84.06 62.6212 83.8568C62.7252 83.6551 62.863 83.4744 63.0347 83.3149C63.2049 83.156 63.4044 83.0239 63.6333 82.9185C64.0201 82.7405 64.4076 82.6766 64.7958 82.7269C65.184 82.7773 65.5447 82.9369 65.8778 83.2058C66.211 83.4747 66.4877 83.8484 66.7079 84.3268C66.9281 84.8051 67.032 85.2583 67.0197 85.6863C67.0073 86.1142 66.8941 86.492 66.6799 86.8197C66.4657 87.1473 66.1651 87.4002 65.7783 87.5782C65.5495 87.6836 65.3193 87.7493 65.088 87.7753C64.8551 87.8019 64.6279 87.7884 64.4064 87.7347C64.1855 87.6825 63.9783 87.59 63.7848 87.4572C63.5919 87.3259 63.4211 87.1532 63.2724 86.9389Z" fill="#231F20"/>
<path d="M58.114 85.1297L59.2904 89.9823L58.7028 90.1248L58.1789 87.9639L55.5915 88.5911L56.1153 90.752L55.5277 90.8945L54.3513 86.0419L54.939 85.8994L55.4651 88.0698L58.0526 87.4426L57.5264 85.2722L58.114 85.1297Z" fill="#231F20"/>
<path d="M37.7765 90.8047L38.7371 85.9048L39.3304 86.0211L38.3699 90.9211L37.7765 90.8047Z" fill="#231F20"/>
</svg>
